<svg xmlns="http://www.w3.org/2000/svg" viewBox="0, 0, 881.34, 619.45" font-family="SauceCodePro Nerd Font, Source Code Pro, Courier" font-size="14"><g fill="#D3D3D3"><rect x="0" y="0" width="881.34" height="619.45" fill="#000000"/><text x="8" y="18.55">cpu: Apple M1</text><text x="8" y="37.55">runtime: deno 1.32.1 (aarch64-apple-darwin)</text><text x="8" y="75.55">file:///Users/wan2land/Workspace/@denostack/superserial/.benchmark/serializer.bench.ts</text><text x="8" y="94.55">benchmark                              time (avg)             (min &#x2026; max)       p75       p99      p995</text><text x="8" y="113.55">------------------------------------------------------------------------- -----------------------------</text><text x="8" y="132.55">serialize #Serializer.serialize      </text><text x="318.85" y="132.55" fill="#DAA520">2.59 &#xB5;s</text><text x="377.66" y="132.55">/iter     (</text><text x="470.08" y="132.55" fill="#008B8B">2.52 &#xB5;s</text><text x="537.29" y="132.55"> &#x2026; </text><text x="554.09" y="132.55" fill="#9932CC">3.22 &#xB5;s</text><text x="612.9" y="132.55">)   </text><text x="646.5" y="132.55" fill="#A9A9A9">2.57 &#xB5;s</text><text x="730.52" y="132.55" fill="#A9A9A9">3.22 &#xB5;s</text><text x="814.53" y="132.55" fill="#A9A9A9">3.22 &#xB5;s</text><text x="8" y="151.55">serialize #JSON.stringify          </text><text x="302.05" y="151.55" fill="#DAA520">652.53 ns</text><text x="377.66" y="151.55">/iter (</text><text x="436.47" y="151.55" fill="#008B8B">642.57 ns</text><text x="520.48" y="151.55"> &#x2026; </text><text x="537.29" y="151.55" fill="#9932CC">676.38 ns</text><text x="612.9" y="151.55">) </text><text x="629.7" y="151.55" fill="#A9A9A9">652.52 ns</text><text x="713.71" y="151.55" fill="#A9A9A9">676.38 ns</text><text x="797.73" y="151.55" fill="#A9A9A9">676.38 ns</text><text x="8" y="170.55">serialize #devalue.stringify         </text><text x="318.85" y="170.55" fill="#DAA520">5.92 &#xB5;s</text><text x="377.66" y="170.55">/iter   (</text><text x="453.27" y="170.55" fill="#008B8B">5.58 &#xB5;s</text><text x="520.48" y="170.55"> &#x2026; </text><text x="537.29" y="170.55" fill="#9932CC">169.92 &#xB5;s</text><text x="612.9" y="170.55">)   </text><text x="646.5" y="170.55" fill="#A9A9A9">5.79 &#xB5;s</text><text x="730.52" y="170.55" fill="#A9A9A9">6.38 &#xB5;s</text><text x="814.53" y="170.55" fill="#A9A9A9">7.38 &#xB5;s</text><text x="8" y="189.55">serialize #flatted.stringify          </text><text x="327.25" y="189.55" fill="#DAA520">4.1 &#xB5;s</text><text x="377.66" y="189.55">/iter     (</text><text x="470.08" y="189.55" fill="#008B8B">4.06 &#xB5;s</text><text x="537.29" y="189.55"> &#x2026; </text><text x="554.09" y="189.55" fill="#9932CC">4.15 &#xB5;s</text><text x="612.9" y="189.55">)   </text><text x="646.5" y="189.55" fill="#A9A9A9">4.13 &#xB5;s</text><text x="730.52" y="189.55" fill="#A9A9A9">4.15 &#xB5;s</text><text x="814.53" y="189.55" fill="#A9A9A9">4.15 &#xB5;s</text><text x="8" y="208.55">serialize #superjson.stringify      </text><text x="310.45" y="208.55" fill="#DAA520">13.29 &#xB5;s</text><text x="377.66" y="208.55">/iter  (</text><text x="444.87" y="208.55" fill="#008B8B">12.54 &#xB5;s</text><text x="520.48" y="208.55"> &#x2026; </text><text x="537.29" y="208.55" fill="#9932CC">238.12 &#xB5;s</text><text x="612.9" y="208.55">)  </text><text x="638.1" y="208.55" fill="#A9A9A9">12.88 &#xB5;s</text><text x="722.12" y="208.55" fill="#A9A9A9">21.79 &#xB5;s</text><text x="806.13" y="208.55" fill="#A9A9A9">46.79 &#xB5;s</text><text x="8" y="246.55" font-weight="bold">summary</text><text x="24.8" y="265.55" font-weight="bold" fill="#008B8B">serialize #Serializer.serialize</text><text x="33.2" y="284.55" fill="#B22222">3.96</text><text x="66.81" y="284.55">x slower than </text><text x="184.43" y="284.55" font-weight="bold" fill="#008B8B">serialize #JSON.stringify</text><text x="33.2" y="303.55" fill="#32CD32">1.59</text><text x="66.81" y="303.55">x faster than </text><text x="184.43" y="303.55" font-weight="bold" fill="#008B8B">serialize #flatted.stringify</text><text x="33.2" y="322.55" fill="#32CD32">2.29</text><text x="66.81" y="322.55">x faster than </text><text x="184.43" y="322.55" font-weight="bold" fill="#008B8B">serialize #devalue.stringify</text><text x="33.2" y="341.55" fill="#32CD32">5.14</text><text x="66.81" y="341.55">x faster than </text><text x="184.43" y="341.55" font-weight="bold" fill="#008B8B">serialize #superjson.stringify</text><text x="8" y="379.55">serialize #Serializer.deserialize    </text><text x="318.85" y="379.55" fill="#DAA520">13.6 &#xB5;s</text><text x="377.66" y="379.55">/iter     (</text><text x="470.08" y="379.55" fill="#008B8B">13.12 &#xB5;s</text><text x="545.69" y="379.55"> &#x2026; </text><text x="562.49" y="379.55" fill="#9932CC">182 &#xB5;s</text><text x="612.9" y="379.55">)  </text><text x="638.1" y="379.55" fill="#A9A9A9">13.38 &#xB5;s</text><text x="747.32" y="379.55" fill="#A9A9A9">20 &#xB5;s</text><text x="806.13" y="379.55" fill="#A9A9A9">25.54 &#xB5;s</text><text x="8" y="398.55">serialize #JSON.parse                </text><text x="318.85" y="398.55" fill="#DAA520">1.01 &#xB5;s</text><text x="377.66" y="398.55">/iter   (</text><text x="453.27" y="398.55" fill="#008B8B">997.75 ns</text><text x="537.29" y="398.55"> &#x2026; </text><text x="554.09" y="398.55" fill="#9932CC">1.02 &#xB5;s</text><text x="612.9" y="398.55">)   </text><text x="646.5" y="398.55" fill="#A9A9A9">1.01 &#xB5;s</text><text x="730.52" y="398.55" fill="#A9A9A9">1.02 &#xB5;s</text><text x="814.53" y="398.55" fill="#A9A9A9">1.02 &#xB5;s</text><text x="8" y="417.55">serialize #devalue.parse             </text><text x="318.85" y="417.55" fill="#DAA520">1.69 &#xB5;s</text><text x="377.66" y="417.55">/iter     (</text><text x="470.08" y="417.55" fill="#008B8B">1.67 &#xB5;s</text><text x="537.29" y="417.55"> &#x2026; </text><text x="554.09" y="417.55" fill="#9932CC">1.71 &#xB5;s</text><text x="612.9" y="417.55">)   </text><text x="646.5" y="417.55" fill="#A9A9A9">1.69 &#xB5;s</text><text x="730.52" y="417.55" fill="#A9A9A9">1.71 &#xB5;s</text><text x="814.53" y="417.55" fill="#A9A9A9">1.71 &#xB5;s</text><text x="8" y="436.55">serialize #flatted.parse             </text><text x="318.85" y="436.55" fill="#DAA520">8.26 &#xB5;s</text><text x="377.66" y="436.55">/iter   (</text><text x="453.27" y="436.55" fill="#008B8B">7.96 &#xB5;s</text><text x="520.48" y="436.55"> &#x2026; </text><text x="537.29" y="436.55" fill="#9932CC">186.62 &#xB5;s</text><text x="612.9" y="436.55">)   </text><text x="646.5" y="436.55" fill="#A9A9A9">8.21 &#xB5;s</text><text x="730.52" y="436.55" fill="#A9A9A9">9.25 &#xB5;s</text><text x="814.53" y="436.55" fill="#A9A9A9">9.46 &#xB5;s</text><text x="8" y="455.55">serialize #superjson.parse            </text><text x="327.25" y="455.55" fill="#DAA520">3.7 &#xB5;s</text><text x="377.66" y="455.55">/iter     (</text><text x="470.08" y="455.55" fill="#008B8B">3.67 &#xB5;s</text><text x="537.29" y="455.55"> &#x2026; </text><text x="554.09" y="455.55" fill="#9932CC">3.76 &#xB5;s</text><text x="612.9" y="455.55">)    </text><text x="654.91" y="455.55" fill="#A9A9A9">3.7 &#xB5;s</text><text x="730.52" y="455.55" fill="#A9A9A9">3.76 &#xB5;s</text><text x="814.53" y="455.55" fill="#A9A9A9">3.76 &#xB5;s</text><text x="8" y="493.55" font-weight="bold">summary</text><text x="24.8" y="512.55" font-weight="bold" fill="#008B8B">serialize #Serializer.deserialize</text><text x="33.2" y="531.55" fill="#B22222">13.45</text><text x="75.21" y="531.55">x slower than </text><text x="192.83" y="531.55" font-weight="bold" fill="#008B8B">serialize #JSON.parse</text><text x="33.2" y="550.55" fill="#B22222">8.06</text><text x="66.81" y="550.55">x slower than </text><text x="184.43" y="550.55" font-weight="bold" fill="#008B8B">serialize #devalue.parse</text><text x="33.2" y="569.55" fill="#B22222">3.68</text><text x="66.81" y="569.55">x slower than </text><text x="184.43" y="569.55" font-weight="bold" fill="#008B8B">serialize #superjson.parse</text><text x="33.2" y="588.55" fill="#B22222">1.65</text><text x="66.81" y="588.55">x slower than </text><text x="184.43" y="588.55" font-weight="bold" fill="#008B8B">serialize #flatted.parse</text></g></svg>