<svg xmlns="http://www.w3.org/2000/svg" viewBox="0, 0, 881.34, 391.45" font-family="SauceCodePro Nerd Font, Source Code Pro, Courier" font-size="14"><g fill="#D3D3D3"><rect x="0" y="0" width="881.34" height="391.45" fill="#000000"/><text x="8" y="18.55">cpu: Apple M1</text><text x="8" y="37.55">runtime: deno 1.29.2 (aarch64-apple-darwin)</text><text x="8" y="75.55">file:///Users/wan2land/Workspace/@denostack/superserial/.benchmark/serializer.bench.ts</text><text x="8" y="94.55">benchmark                              time (avg)             (min &#x2026; max)       p75       p99      p995</text><text x="8" y="113.55">------------------------------------------------------------------------- -----------------------------</text><text x="8" y="132.55">serialize #Serializer.serialize      </text><text x="318.85" y="132.55" fill="#DAA520">3.32 &#xB5;s</text><text x="377.66" y="132.55">/iter     (</text><text x="470.08" y="132.55" fill="#008B8B">3.26 &#xB5;s</text><text x="537.29" y="132.55"> &#x2026; </text><text x="554.09" y="132.55" fill="#9932CC">3.44 &#xB5;s</text><text x="612.9" y="132.55">)   </text><text x="646.5" y="132.55" fill="#A9A9A9">3.41 &#xB5;s</text><text x="730.52" y="132.55" fill="#A9A9A9">3.44 &#xB5;s</text><text x="814.53" y="132.55" fill="#A9A9A9">3.44 &#xB5;s</text><text x="8" y="151.55">serialize #JSON.stringify          </text><text x="302.05" y="151.55" fill="#DAA520">625.66 ns</text><text x="377.66" y="151.55">/iter (</text><text x="436.47" y="151.55" fill="#008B8B">613.44 ns</text><text x="520.48" y="151.55"> &#x2026; </text><text x="537.29" y="151.55" fill="#9932CC">652.89 ns</text><text x="612.9" y="151.55">) </text><text x="629.7" y="151.55" fill="#A9A9A9">628.16 ns</text><text x="713.71" y="151.55" fill="#A9A9A9">652.89 ns</text><text x="797.73" y="151.55" fill="#A9A9A9">652.89 ns</text><text x="8" y="189.55" font-weight="bold">summary</text><text x="24.8" y="208.55" font-weight="bold" fill="#008B8B">serialize #Serializer.serialize</text><text x="33.2" y="227.55" fill="#B22222">5.3</text><text x="58.41" y="227.55">x slower than </text><text x="176.03" y="227.55" font-weight="bold" fill="#008B8B">serialize #JSON.stringify</text><text x="8" y="265.55">serialize #Serializer.deserialize   </text><text x="310.45" y="265.55" fill="#DAA520">14.67 &#xB5;s</text><text x="377.66" y="265.55">/iter    (</text><text x="461.67" y="265.55" fill="#008B8B">13.71 &#xB5;s</text><text x="537.29" y="265.55"> &#x2026; </text><text x="554.09" y="265.55" fill="#9932CC">4.08 ms</text><text x="612.9" y="265.55">)  </text><text x="638.1" y="265.55" fill="#A9A9A9">14.04 &#xB5;s</text><text x="722.12" y="265.55" fill="#A9A9A9">19.46 &#xB5;s</text><text x="806.13" y="265.55" fill="#A9A9A9">26.33 &#xB5;s</text><text x="8" y="284.55">serialize #JSON.parse                   </text><text x="344.05" y="284.55" fill="#DAA520">1 &#xB5;s</text><text x="377.66" y="284.55">/iter   (</text><text x="453.27" y="284.55" fill="#008B8B">954.11 ns</text><text x="537.29" y="284.55"> &#x2026; </text><text x="554.09" y="284.55" fill="#9932CC">2.54 &#xB5;s</text><text x="612.9" y="284.55">)  </text><text x="638.1" y="284.55" fill="#A9A9A9">981.3 ns</text><text x="730.52" y="284.55" fill="#A9A9A9">2.54 &#xB5;s</text><text x="814.53" y="284.55" fill="#A9A9A9">2.54 &#xB5;s</text><text x="8" y="322.55" font-weight="bold">summary</text><text x="24.8" y="341.55" font-weight="bold" fill="#008B8B">serialize #Serializer.deserialize</text><text x="33.2" y="360.55" fill="#B22222">14.63</text><text x="75.21" y="360.55">x slower than </text><text x="192.83" y="360.55" font-weight="bold" fill="#008B8B">serialize #JSON.parse</text></g></svg>