<svg xmlns="http://www.w3.org/2000/svg" viewBox="0, 0, 881.34, 619.45" font-family="SauceCodePro Nerd Font, Source Code Pro, Courier" font-size="14"><g fill="#D3D3D3"><rect x="0" y="0" width="881.34" height="619.45" fill="#000000"/><text x="8" y="18.55">cpu: Apple M1</text><text x="8" y="37.55">runtime: deno 1.32.1 (aarch64-apple-darwin)</text><text x="8" y="75.55">file:///Users/wan2land/Workspace/@denostack/superserial/.benchmark/serializer.bench.ts</text><text x="8" y="94.55">benchmark                              time (avg)             (min &#x2026; max)       p75       p99      p995</text><text x="8" y="113.55">------------------------------------------------------------------------- -----------------------------</text><text x="8" y="132.55">serialize #Serializer.serialize      </text><text x="318.85" y="132.55" fill="#DAA520">1.53 &#xB5;s</text><text x="377.66" y="132.55">/iter     (</text><text x="470.08" y="132.55" fill="#008B8B">1.41 &#xB5;s</text><text x="537.29" y="132.55"> &#x2026; </text><text x="554.09" y="132.55" fill="#9932CC">2.66 &#xB5;s</text><text x="612.9" y="132.55">)   </text><text x="646.5" y="132.55" fill="#A9A9A9">1.47 &#xB5;s</text><text x="730.52" y="132.55" fill="#A9A9A9">2.66 &#xB5;s</text><text x="814.53" y="132.55" fill="#A9A9A9">2.66 &#xB5;s</text><text x="8" y="151.55">serialize #JSON.stringify          </text><text x="302.05" y="151.55" fill="#DAA520">654.69 ns</text><text x="377.66" y="151.55">/iter  (</text><text x="444.87" y="151.55" fill="#008B8B">646.9 ns</text><text x="520.48" y="151.55"> &#x2026; </text><text x="537.29" y="151.55" fill="#9932CC">678.54 ns</text><text x="612.9" y="151.55">)  </text><text x="638.1" y="151.55" fill="#A9A9A9">655.5 ns</text><text x="713.71" y="151.55" fill="#A9A9A9">678.54 ns</text><text x="797.73" y="151.55" fill="#A9A9A9">678.54 ns</text><text x="8" y="170.55">serialize #devalue.stringify         </text><text x="318.85" y="170.55" fill="#DAA520">3.99 &#xB5;s</text><text x="377.66" y="170.55">/iter     (</text><text x="470.08" y="170.55" fill="#008B8B">3.89 &#xB5;s</text><text x="537.29" y="170.55"> &#x2026; </text><text x="554.09" y="170.55" fill="#9932CC">4.12 &#xB5;s</text><text x="612.9" y="170.55">)   </text><text x="646.5" y="170.55" fill="#A9A9A9">4.05 &#xB5;s</text><text x="730.52" y="170.55" fill="#A9A9A9">4.12 &#xB5;s</text><text x="814.53" y="170.55" fill="#A9A9A9">4.12 &#xB5;s</text><text x="8" y="189.55">serialize #flatted.stringify         </text><text x="318.85" y="189.55" fill="#DAA520">3.49 &#xB5;s</text><text x="377.66" y="189.55">/iter     (</text><text x="470.08" y="189.55" fill="#008B8B">3.47 &#xB5;s</text><text x="537.29" y="189.55"> &#x2026; </text><text x="554.09" y="189.55" fill="#9932CC">3.51 &#xB5;s</text><text x="612.9" y="189.55">)    </text><text x="654.91" y="189.55" fill="#A9A9A9">3.5 &#xB5;s</text><text x="730.52" y="189.55" fill="#A9A9A9">3.51 &#xB5;s</text><text x="814.53" y="189.55" fill="#A9A9A9">3.51 &#xB5;s</text><text x="8" y="208.55">serialize #superjson.stringify       </text><text x="318.85" y="208.55" fill="#DAA520">8.19 &#xB5;s</text><text x="377.66" y="208.55">/iter    (</text><text x="461.67" y="208.55" fill="#008B8B">7.5 &#xB5;s</text><text x="520.48" y="208.55"> &#x2026; </text><text x="537.29" y="208.55" fill="#9932CC">128.92 &#xB5;s</text><text x="612.9" y="208.55">)   </text><text x="646.5" y="208.55" fill="#A9A9A9">7.83 &#xB5;s</text><text x="730.52" y="208.55" fill="#A9A9A9">9.67 &#xB5;s</text><text x="806.13" y="208.55" fill="#A9A9A9">63.58 &#xB5;s</text><text x="8" y="246.55" font-weight="bold">summary</text><text x="24.8" y="265.55" font-weight="bold" fill="#008B8B">serialize #Serializer.serialize</text><text x="33.2" y="284.55" fill="#B22222">2.34</text><text x="66.81" y="284.55">x slower than </text><text x="184.43" y="284.55" font-weight="bold" fill="#008B8B">serialize #JSON.stringify</text><text x="33.2" y="303.55" fill="#32CD32">2.28</text><text x="66.81" y="303.55">x faster than </text><text x="184.43" y="303.55" font-weight="bold" fill="#008B8B">serialize #flatted.stringify</text><text x="33.2" y="322.55" fill="#32CD32">2.6</text><text x="58.41" y="322.55">x faster than </text><text x="176.03" y="322.55" font-weight="bold" fill="#008B8B">serialize #devalue.stringify</text><text x="33.2" y="341.55" fill="#32CD32">5.35</text><text x="66.81" y="341.55">x faster than </text><text x="184.43" y="341.55" font-weight="bold" fill="#008B8B">serialize #superjson.stringify</text><text x="8" y="379.55">serialize #Serializer.deserialize   </text><text x="310.45" y="379.55" fill="#DAA520">10.54 &#xB5;s</text><text x="377.66" y="379.55">/iter     (</text><text x="470.08" y="379.55" fill="#008B8B">7.54 &#xB5;s</text><text x="537.29" y="379.55"> &#x2026; </text><text x="554.09" y="379.55" fill="#9932CC">5.94 ms</text><text x="612.9" y="379.55">)   </text><text x="646.5" y="379.55" fill="#A9A9A9">8.33 &#xB5;s</text><text x="722.12" y="379.55" fill="#A9A9A9">37.25 &#xB5;s</text><text x="806.13" y="379.55" fill="#A9A9A9">75.08 &#xB5;s</text><text x="8" y="398.55">serialize #JSON.parse                </text><text x="318.85" y="398.55" fill="#DAA520">1.25 &#xB5;s</text><text x="377.66" y="398.55">/iter     (</text><text x="470.08" y="398.55" fill="#008B8B">1.01 &#xB5;s</text><text x="537.29" y="398.55"> &#x2026; </text><text x="554.09" y="398.55" fill="#9932CC">2.15 &#xB5;s</text><text x="612.9" y="398.55">)   </text><text x="646.5" y="398.55" fill="#A9A9A9">1.34 &#xB5;s</text><text x="730.52" y="398.55" fill="#A9A9A9">2.15 &#xB5;s</text><text x="814.53" y="398.55" fill="#A9A9A9">2.15 &#xB5;s</text><text x="8" y="417.55">serialize #devalue.parse             </text><text x="318.85" y="417.55" fill="#DAA520">1.75 &#xB5;s</text><text x="377.66" y="417.55">/iter     (</text><text x="470.08" y="417.55" fill="#008B8B">1.69 &#xB5;s</text><text x="537.29" y="417.55"> &#x2026; </text><text x="554.09" y="417.55" fill="#9932CC">2.23 &#xB5;s</text><text x="612.9" y="417.55">)   </text><text x="646.5" y="417.55" fill="#A9A9A9">1.76 &#xB5;s</text><text x="730.52" y="417.55" fill="#A9A9A9">2.23 &#xB5;s</text><text x="814.53" y="417.55" fill="#A9A9A9">2.23 &#xB5;s</text><text x="8" y="436.55">serialize #flatted.parse             </text><text x="318.85" y="436.55" fill="#DAA520">7.47 &#xB5;s</text><text x="377.66" y="436.55">/iter     (</text><text x="470.08" y="436.55" fill="#008B8B">7.39 &#xB5;s</text><text x="537.29" y="436.55"> &#x2026; </text><text x="554.09" y="436.55" fill="#9932CC">7.64 &#xB5;s</text><text x="612.9" y="436.55">)   </text><text x="646.5" y="436.55" fill="#A9A9A9">7.53 &#xB5;s</text><text x="730.52" y="436.55" fill="#A9A9A9">7.64 &#xB5;s</text><text x="814.53" y="436.55" fill="#A9A9A9">7.64 &#xB5;s</text><text x="8" y="455.55">serialize #superjson.parse           </text><text x="318.85" y="455.55" fill="#DAA520">2.71 &#xB5;s</text><text x="377.66" y="455.55">/iter     (</text><text x="470.08" y="455.55" fill="#008B8B">2.66 &#xB5;s</text><text x="537.29" y="455.55"> &#x2026; </text><text x="554.09" y="455.55" fill="#9932CC">3.39 &#xB5;s</text><text x="612.9" y="455.55">)   </text><text x="646.5" y="455.55" fill="#A9A9A9">2.68 &#xB5;s</text><text x="730.52" y="455.55" fill="#A9A9A9">3.39 &#xB5;s</text><text x="814.53" y="455.55" fill="#A9A9A9">3.39 &#xB5;s</text><text x="8" y="493.55" font-weight="bold">summary</text><text x="24.8" y="512.55" font-weight="bold" fill="#008B8B">serialize #Serializer.deserialize</text><text x="33.2" y="531.55" fill="#B22222">8.42</text><text x="66.81" y="531.55">x slower than </text><text x="184.43" y="531.55" font-weight="bold" fill="#008B8B">serialize #JSON.parse</text><text x="33.2" y="550.55" fill="#B22222">6.02</text><text x="66.81" y="550.55">x slower than </text><text x="184.43" y="550.55" font-weight="bold" fill="#008B8B">serialize #devalue.parse</text><text x="33.2" y="569.55" fill="#B22222">3.89</text><text x="66.81" y="569.55">x slower than </text><text x="184.43" y="569.55" font-weight="bold" fill="#008B8B">serialize #superjson.parse</text><text x="33.2" y="588.55" fill="#B22222">1.41</text><text x="66.81" y="588.55">x slower than </text><text x="184.43" y="588.55" font-weight="bold" fill="#008B8B">serialize #flatted.parse</text></g></svg>