<svg xmlns="http://www.w3.org/2000/svg" viewBox="0, 0, 1024.16, 999.45" font-family="SauceCodePro Nerd Font, Source Code Pro, Courier" font-size="14"><g fill="#D3D3D3"><rect x="0" y="0" width="1024.16" height="999.45" fill="#000000"/><text x="41.61" y="18.55">    CPU | Apple M2</text><text x="8" y="37.55">Runtime | Deno 2.5.6 (aarch64-apple-darwin)</text><text x="8" y="94.55">| benchmark                 | time/iter (avg) |        iter/s |      (min &#x2026; max)      |      p75 |      p99 |     p995 |</text><text x="8" y="113.55">| ------------------------- | --------------- | ------------- | --------------------- | -------- | -------- | -------- |</text><text x="8" y="151.55">group</text><text x="58.41" y="151.55" fill="#32CD32">serialize simple</text><text x="8" y="170.55">| Superserial.serialize     | </text><text x="335.65" y="170.55" fill="#DAA520">         1.8 &#xB5;s</text><text x="394.46" y="170.55"> |       554,500 | (</text><text x="570.89" y="170.55" fill="#008B8B">  1.7 &#xB5;s</text><text x="629.7" y="170.55"> &#x2026; </text><text x="663.31" y="170.55" fill="#9932CC">  2.2 &#xB5;s</text><text x="713.71" y="170.55">) |</text><text x="764.12" y="170.55" fill="#9932CC">   1.8 &#xB5;s |   2.2 &#xB5;s |   2.2 &#xB5;s |</text><text x="8" y="189.55">| JSON.stringify            | </text><text x="318.85" y="189.55" fill="#DAA520">       202.0 ns</text><text x="394.46" y="189.55"> |     4,950,000 | (</text><text x="554.09" y="189.55" fill="#008B8B">197.9 ns</text><text x="629.7" y="189.55"> &#x2026; </text><text x="646.5" y="189.55" fill="#9932CC">218.1 ns</text><text x="713.71" y="189.55">) |</text><text x="747.32" y="189.55" fill="#9932CC"> 203.7 ns | 215.5 ns | 216.6 ns |</text><text x="8" y="208.55">| devalue.stringify         | </text><text x="335.65" y="208.55" fill="#DAA520">         3.8 &#xB5;s</text><text x="394.46" y="208.55"> |       266,500 | (</text><text x="570.89" y="208.55" fill="#008B8B">  3.6 &#xB5;s</text><text x="629.7" y="208.55"> &#x2026; </text><text x="663.31" y="208.55" fill="#9932CC">  4.3 &#xB5;s</text><text x="713.71" y="208.55">) |</text><text x="764.12" y="208.55" fill="#9932CC">   3.8 &#xB5;s |   4.3 &#xB5;s |   4.3 &#xB5;s |</text><text x="8" y="227.55">| flatted.stringify         | </text><text x="335.65" y="227.55" fill="#DAA520">         3.7 &#xB5;s</text><text x="394.46" y="227.55"> |       268,800 | (</text><text x="570.89" y="227.55" fill="#008B8B">  3.7 &#xB5;s</text><text x="629.7" y="227.55"> &#x2026; </text><text x="663.31" y="227.55" fill="#9932CC">  3.8 &#xB5;s</text><text x="713.71" y="227.55">) |</text><text x="764.12" y="227.55" fill="#9932CC">   3.7 &#xB5;s |   3.8 &#xB5;s |   3.8 &#xB5;s |</text><text x="8" y="246.55">| superjson.stringify       | </text><text x="335.65" y="246.55" fill="#DAA520">         8.8 &#xB5;s</text><text x="394.46" y="246.55"> |       113,300 | (</text><text x="570.89" y="246.55" fill="#008B8B">  8.1 &#xB5;s</text><text x="629.7" y="246.55"> &#x2026; </text><text x="646.5" y="246.55" fill="#9932CC">124.6 &#xB5;s</text><text x="713.71" y="246.55">) |</text><text x="764.12" y="246.55" fill="#9932CC">   8.8 &#xB5;s |  11.8 &#xB5;s |  14.8 &#xB5;s |</text><text x="8" y="284.55">summary</text><text x="24.8" y="303.55" font-weight="bold" fill="#008B8B">Superserial.serialize</text><text x="50.01" y="322.55" fill="#B22222">     8.93</text><text x="83.61" y="322.55">x slower than </text><text x="201.23" y="322.55" font-weight="bold" fill="#008B8B">JSON.stringify</text><text x="50.01" y="341.55" fill="#32CD32">     2.06</text><text x="83.61" y="341.55">x faster than </text><text x="201.23" y="341.55" font-weight="bold" fill="#008B8B">flatted.stringify</text><text x="50.01" y="360.55" fill="#32CD32">     2.08</text><text x="83.61" y="360.55">x faster than </text><text x="201.23" y="360.55" font-weight="bold" fill="#008B8B">devalue.stringify</text><text x="50.01" y="379.55" fill="#32CD32">     4.89</text><text x="83.61" y="379.55">x faster than </text><text x="201.23" y="379.55" font-weight="bold" fill="#008B8B">superjson.stringify</text><text x="8" y="417.55">group</text><text x="58.41" y="417.55" fill="#32CD32">deserialize simple</text><text x="8" y="436.55">| Superserial.deserialize   | </text><text x="335.65" y="436.55" fill="#DAA520">         1.3 &#xB5;s</text><text x="394.46" y="436.55"> |       767,300 | (</text><text x="570.89" y="436.55" fill="#008B8B">  1.3 &#xB5;s</text><text x="629.7" y="436.55"> &#x2026; </text><text x="663.31" y="436.55" fill="#9932CC">  1.3 &#xB5;s</text><text x="713.71" y="436.55">) |</text><text x="764.12" y="436.55" fill="#9932CC">   1.3 &#xB5;s |   1.3 &#xB5;s |   1.3 &#xB5;s |</text><text x="8" y="455.55">| JSON.parse                | </text><text x="318.85" y="455.55" fill="#DAA520">       754.6 ns</text><text x="394.46" y="455.55"> |     1,325,000 | (</text><text x="554.09" y="455.55" fill="#008B8B">745.5 ns</text><text x="629.7" y="455.55"> &#x2026; </text><text x="646.5" y="455.55" fill="#9932CC">777.6 ns</text><text x="713.71" y="455.55">) |</text><text x="747.32" y="455.55" fill="#9932CC"> 756.6 ns | 777.6 ns | 777.6 ns |</text><text x="8" y="474.55">| devalue.parse             | </text><text x="335.65" y="474.55" fill="#DAA520">         1.5 &#xB5;s</text><text x="394.46" y="474.55"> |       658,100 | (</text><text x="570.89" y="474.55" fill="#008B8B">  1.5 &#xB5;s</text><text x="629.7" y="474.55"> &#x2026; </text><text x="663.31" y="474.55" fill="#9932CC">  1.7 &#xB5;s</text><text x="713.71" y="474.55">) |</text><text x="764.12" y="474.55" fill="#9932CC">   1.5 &#xB5;s |   1.7 &#xB5;s |   1.7 &#xB5;s |</text><text x="8" y="493.55">| flatted.parse             | </text><text x="327.25" y="493.55" fill="#DAA520">        10.2 &#xB5;s</text><text x="394.46" y="493.55"> |        98,360 | (</text><text x="570.89" y="493.55" fill="#008B8B">  9.7 &#xB5;s</text><text x="629.7" y="493.55"> &#x2026; </text><text x="646.5" y="493.55" fill="#9932CC">106.6 &#xB5;s</text><text x="713.71" y="493.55">) |</text><text x="755.72" y="493.55" fill="#9932CC">  10.1 &#xB5;s |  13.5 &#xB5;s |  14.1 &#xB5;s |</text><text x="8" y="512.55">| superjson.parse           | </text><text x="335.65" y="512.55" fill="#DAA520">         2.5 &#xB5;s</text><text x="394.46" y="512.55"> |       404,800 | (</text><text x="570.89" y="512.55" fill="#008B8B">  2.5 &#xB5;s</text><text x="629.7" y="512.55"> &#x2026; </text><text x="663.31" y="512.55" fill="#9932CC">  2.6 &#xB5;s</text><text x="713.71" y="512.55">) |</text><text x="764.12" y="512.55" fill="#9932CC">   2.5 &#xB5;s |   2.6 &#xB5;s |   2.6 &#xB5;s |</text><text x="8" y="550.55">summary</text><text x="24.8" y="569.55" font-weight="bold" fill="#008B8B">Superserial.deserialize</text><text x="50.01" y="588.55" fill="#B22222">     1.73</text><text x="83.61" y="588.55">x slower than </text><text x="201.23" y="588.55" font-weight="bold" fill="#008B8B">JSON.parse</text><text x="50.01" y="607.55" fill="#32CD32">     1.17</text><text x="83.61" y="607.55">x faster than </text><text x="201.23" y="607.55" font-weight="bold" fill="#008B8B">devalue.parse</text><text x="50.01" y="626.55" fill="#32CD32">     1.90</text><text x="83.61" y="626.55">x faster than </text><text x="201.23" y="626.55" font-weight="bold" fill="#008B8B">superjson.parse</text><text x="50.01" y="645.55" fill="#32CD32">     7.80</text><text x="83.61" y="645.55">x faster than </text><text x="201.23" y="645.55" font-weight="bold" fill="#008B8B">flatted.parse</text><text x="8" y="683.55">group</text><text x="58.41" y="683.55" fill="#32CD32">serialize complex</text><text x="8" y="702.55">| Superserial.serialize     | </text><text x="335.65" y="702.55" fill="#DAA520">         2.4 ms</text><text x="394.46" y="702.55"> |         416.3 | (</text><text x="570.89" y="702.55" fill="#008B8B">  2.0 ms</text><text x="629.7" y="702.55"> &#x2026; </text><text x="663.31" y="702.55" fill="#9932CC">  8.3 ms</text><text x="713.71" y="702.55">) |</text><text x="764.12" y="702.55" fill="#9932CC">   2.5 ms |   6.3 ms |   8.1 ms |</text><text x="8" y="721.55">| devalue.stringify         | </text><text x="335.65" y="721.55" fill="#DAA520">         4.0 ms</text><text x="394.46" y="721.55"> |         249.3 | (</text><text x="570.89" y="721.55" fill="#008B8B">  3.8 ms</text><text x="629.7" y="721.55"> &#x2026; </text><text x="663.31" y="721.55" fill="#9932CC">  5.3 ms</text><text x="713.71" y="721.55">) |</text><text x="764.12" y="721.55" fill="#9932CC">   4.0 ms |   4.7 ms |   5.3 ms |</text><text x="8" y="759.55">summary</text><text x="24.8" y="778.55" font-weight="bold" fill="#008B8B">Superserial.serialize</text><text x="50.01" y="797.55" fill="#32CD32">     1.67</text><text x="83.61" y="797.55">x faster than </text><text x="201.23" y="797.55" font-weight="bold" fill="#008B8B">devalue.stringify</text><text x="8" y="835.55">group</text><text x="58.41" y="835.55" fill="#32CD32">deserialize complex</text><text x="8" y="854.55">| Superserial.deserialize   | </text><text x="335.65" y="854.55" fill="#DAA520">         1.5 ms</text><text x="394.46" y="854.55"> |         687.3 | (</text><text x="570.89" y="854.55" fill="#008B8B">  1.4 ms</text><text x="629.7" y="854.55"> &#x2026; </text><text x="663.31" y="854.55" fill="#9932CC">  2.6 ms</text><text x="713.71" y="854.55">) |</text><text x="764.12" y="854.55" fill="#9932CC">   1.4 ms |   1.8 ms |   2.0 ms |</text><text x="8" y="873.55">| devalue.parse             | </text><text x="335.65" y="873.55" fill="#DAA520">         1.6 ms</text><text x="394.46" y="873.55"> |         640.7 | (</text><text x="570.89" y="873.55" fill="#008B8B">  1.5 ms</text><text x="629.7" y="873.55"> &#x2026; </text><text x="663.31" y="873.55" fill="#9932CC">  2.4 ms</text><text x="713.71" y="873.55">) |</text><text x="764.12" y="873.55" fill="#9932CC">   1.6 ms |   1.8 ms |   2.0 ms |</text><text x="8" y="911.55">summary</text><text x="24.8" y="930.55" font-weight="bold" fill="#008B8B">Superserial.deserialize</text><text x="50.01" y="949.55" fill="#32CD32">     1.07</text><text x="83.61" y="949.55">x faster than </text><text x="201.23" y="949.55" font-weight="bold" fill="#008B8B">devalue.parse</text></g></svg>